<svg width="119" height="13" viewBox="0 0 119 13" fill="none" xmlns="http://www.w3.org/2000/svg">
<path d="M5.97974 0.924484C6.71926 0.924484 7.40101 1.04581 8.02498 1.28847C8.64896 1.51957 9.18627 1.872 9.63691 2.34576C10.0991 2.80796 10.4573 3.39149 10.7115 4.09635C10.9657 4.78965 11.0928 5.60428 11.0928 6.54024C11.0928 7.45309 10.96 8.26194 10.6942 8.9668C10.4284 9.6601 10.0644 10.2436 9.60225 10.7174C9.14004 11.1911 8.59118 11.5494 7.95565 11.792C7.33168 12.0347 6.64993 12.156 5.91041 12.156C5.17089 12.156 4.48914 12.0404 3.86516 11.8093C3.24119 11.5667 2.6981 11.2143 2.2359 10.7521C1.78526 10.2783 1.43283 9.69477 1.17862 9.00146C0.924404 8.29661 0.797299 7.4762 0.797299 6.54024C0.797299 5.62739 0.930182 4.82431 1.19595 4.13101C1.46171 3.42615 1.8257 2.83684 2.2879 2.36309C2.7501 1.88933 3.29319 1.53112 3.91716 1.28847C4.55269 1.04581 5.24022 0.924484 5.97974 0.924484ZM2.53056 6.54024C2.53056 7.27976 2.61722 7.92107 2.79054 8.46415C2.97543 9.00724 3.22386 9.45789 3.53585 9.8161C3.84783 10.1743 4.21182 10.4401 4.6278 10.6134C5.05533 10.7867 5.50598 10.8734 5.97974 10.8734C6.4535 10.8734 6.89259 10.7867 7.29701 10.6134C7.713 10.4401 8.0712 10.1743 8.37163 9.8161C8.68362 9.45789 8.92628 9.00724 9.0996 8.46415C9.27293 7.92107 9.35959 7.27976 9.35959 6.54024C9.35959 5.77761 9.26715 5.12474 9.08227 4.58166C8.90894 4.03857 8.66629 3.5937 8.3543 3.24705C8.04232 2.88884 7.67255 2.62885 7.24502 2.46708C6.82903 2.29376 6.38417 2.2071 5.91041 2.2071C5.43665 2.2071 4.99178 2.29376 4.5758 2.46708C4.15982 2.64041 3.80161 2.90618 3.50118 3.26438C3.20075 3.62259 2.96387 4.07324 2.79054 4.61632C2.61722 5.15941 2.53056 5.80072 2.53056 6.54024ZM14.3089 1.08048H15.9034V10.6481H20.5659V12H14.3089V1.08048ZM26.4732 1.08048H27.8945L32.245 12H30.581L29.3851 8.9668H24.8959L23.7173 12H22.0707L26.4732 1.08048ZM25.3293 7.70152H28.9171L28.1891 5.81227C27.9927 5.3154 27.8136 4.83587 27.6518 4.37367C27.4901 3.91146 27.3283 3.43771 27.1665 2.9524H27.1318C26.9701 3.43771 26.8025 3.90569 26.6292 4.35633C26.4559 4.80698 26.271 5.29229 26.0746 5.81227L25.3293 7.70152ZM34.4881 12V2.64041H35.8549V6.87451L39.7918 2.64041H41.4855L37.6228 6.78537L41.7826 12H40.0592L36.6422 7.72133L35.8549 8.56815V12H34.4881ZM47.354 2.5067C47.9879 2.5067 48.5722 2.6107 49.1071 2.81869C49.6419 3.01677 50.1025 3.31886 50.4887 3.72493C50.8849 4.12111 51.1919 4.62127 51.4098 5.22544C51.6277 5.8197 51.7367 6.51795 51.7367 7.3202C51.7367 8.10265 51.6228 8.79595 51.395 9.40011C51.1672 9.99437 50.8552 10.4945 50.459 10.9006C50.0628 11.3067 49.5924 11.6137 49.0476 11.8217C48.5128 12.0297 47.9285 12.1337 47.2946 12.1337C46.6607 12.1337 46.0763 12.0347 45.5415 11.8366C45.0067 11.6286 44.5412 11.3265 44.145 10.9303C43.7587 10.5243 43.4567 10.0241 43.2388 9.42983C43.0209 8.82566 42.9119 8.12246 42.9119 7.3202C42.9119 6.53776 43.0258 5.84941 43.2536 5.25515C43.4814 4.65099 43.7934 4.14587 44.1896 3.73979C44.5857 3.33371 45.0512 3.02668 45.5861 2.81869C46.1308 2.6107 46.7201 2.5067 47.354 2.5067ZM44.3976 7.3202C44.3976 7.95408 44.4718 8.50377 44.6204 8.96928C44.7789 9.43478 44.9918 9.82105 45.2592 10.1281C45.5267 10.4351 45.8386 10.6629 46.1952 10.8115C46.5617 10.96 46.9479 11.0343 47.354 11.0343C47.7601 11.0343 48.1364 10.96 48.4831 10.8115C48.8397 10.6629 49.1467 10.4351 49.4042 10.1281C49.6716 9.82105 49.8796 9.43478 50.0282 8.96928C50.1767 8.50377 50.251 7.95408 50.251 7.3202C50.251 6.66652 50.1718 6.10692 50.0133 5.64142C49.8648 5.17592 49.6568 4.7946 49.3893 4.49747C49.1219 4.19044 48.805 3.96759 48.4385 3.82893C48.082 3.68036 47.7007 3.60608 47.2946 3.60608C46.8885 3.60608 46.5072 3.68036 46.1506 3.82893C45.7941 3.97749 45.487 4.20529 45.2295 4.51233C44.972 4.81936 44.769 5.20563 44.6204 5.67113C44.4718 6.13664 44.3976 6.68633 44.3976 7.3202ZM54.7476 2.64041L56.3372 8.15217C56.3768 8.27102 56.4164 8.42454 56.456 8.61272C56.5056 8.791 56.5551 8.98413 56.6046 9.19212C56.6541 9.39021 56.6987 9.59325 56.7383 9.80124C56.7779 9.99933 56.8077 10.1875 56.8275 10.3658H56.8572C56.8869 10.1875 56.9216 9.99933 56.9612 9.80124C57.0107 9.59325 57.0602 9.39021 57.1097 9.19212C57.1593 8.98413 57.2038 8.791 57.2434 8.61272C57.293 8.43444 57.3375 8.28092 57.3772 8.15217L59.0114 2.64041H60.2296L61.9232 8.15217C61.9629 8.28092 62.0025 8.43444 62.0421 8.61272C62.0916 8.791 62.1362 8.97918 62.1758 9.17727C62.2253 9.37535 62.2699 9.57839 62.3095 9.78638C62.359 9.99437 62.3986 10.1875 62.4284 10.3658H62.4581C62.4878 10.1776 62.5224 9.97952 62.5621 9.77153C62.6116 9.56354 62.6611 9.3605 62.7106 9.16241C62.7602 8.95442 62.8047 8.76624 62.8443 8.59786C62.8939 8.41959 62.9335 8.27102 62.9632 8.15217L64.4934 2.64041H65.8751L63.1266 12H61.745L60.3187 7.02307C60.2494 6.77547 60.1801 6.54271 60.1107 6.32482C60.0513 6.10692 59.9919 5.89893 59.9325 5.70085C59.8829 5.50276 59.8285 5.30467 59.769 5.10659C59.7195 4.8986 59.6651 4.6807 59.6056 4.4529H59.5759C59.4769 4.8986 59.3679 5.34429 59.2491 5.78999C59.1302 6.23568 59.0163 6.64671 58.9074 7.02307L57.5257 12H56.1589L53.351 2.64041H54.7476ZM70.0268 2.64041H71.245L74.974 12H73.5477L72.5226 9.40011H68.6748L67.6646 12H66.2532L70.0268 2.64041ZM69.0462 8.31559H72.1215L71.4976 6.69623C71.3292 6.27035 71.1757 5.85932 71.037 5.46314C70.8983 5.06697 70.7597 4.66089 70.621 4.24491H70.5913C70.4526 4.66089 70.309 5.06202 70.1605 5.44829C70.0119 5.83456 69.8534 6.25054 69.6851 6.69623L69.0462 8.31559ZM77.0664 2.64041H78.4332V10.8412H82.4296V12H77.0664V2.64041ZM88.6736 11.0046C89.1688 11.0046 89.5749 10.965 89.8919 10.8858C90.2187 10.8065 90.5406 10.6926 90.8575 10.5441L91.1695 11.6434C90.8229 11.8118 90.4416 11.9356 90.0256 12.0149C89.6195 12.0941 89.1193 12.1337 88.5251 12.1337C87.911 12.1337 87.3316 12.0297 86.7869 11.8217C86.2421 11.6137 85.7667 11.3067 85.3606 10.9006C84.9645 10.4945 84.6475 9.99437 84.4098 9.40011C84.182 8.79595 84.0681 8.10265 84.0681 7.3202C84.0681 6.55757 84.182 5.87912 84.4098 5.28486C84.6376 4.6807 84.9496 4.17558 85.3458 3.7695C85.7519 3.35352 86.2322 3.04153 86.7869 2.83354C87.3415 2.61565 87.9457 2.5067 88.5993 2.5067C89.2134 2.5067 89.7185 2.55622 90.1147 2.65527C90.5109 2.75431 90.8773 2.88802 91.2141 3.05639L90.8872 4.12606C90.6991 4.04682 90.5208 3.97749 90.3524 3.91807C90.1939 3.84874 90.0305 3.79426 89.8621 3.75465C89.7037 3.71503 89.5353 3.68532 89.357 3.66551C89.1887 3.6457 88.9955 3.63579 88.7776 3.63579C88.3418 3.63579 87.9259 3.70512 87.5297 3.84378C87.1434 3.97254 86.8017 4.18548 86.5046 4.48261C86.2174 4.77974 85.9846 5.16601 85.8063 5.64142C85.638 6.10692 85.5538 6.67147 85.5538 7.33506C85.5538 8.00856 85.638 8.57805 85.8063 9.04356C85.9747 9.50906 86.1975 9.88543 86.4749 10.1727C86.7621 10.4599 87.0939 10.6728 87.4703 10.8115C87.8466 10.9402 88.2477 11.0046 88.6736 11.0046ZM99.7357 2.64041V3.45752L94.5953 10.9006H99.81V12H92.976V11.0343L98.0272 3.73979H93.1988V2.64041H99.7357ZM102.863 2.64041L105.196 6.82994L107.543 2.64041H108.984L105.82 8.07789V12H104.453V8.07789L101.363 2.64041H102.863ZM111.07 12V2.64041H112.437V6.87451L116.374 2.64041H118.068L114.205 6.78537L118.365 12H116.642L113.225 7.72133L112.437 8.56815V12H111.07Z" fill="#F0F0F0"/>
</svg>
