<svg width="201" height="20" viewBox="0 0 201 20" fill="none" xmlns="http://www.w3.org/2000/svg">
<path d="M9.16556 0.171622C10.4227 0.171622 11.5817 0.37788 12.6425 0.790396C13.7032 1.18327 14.6167 1.7824 15.3828 2.58778C16.1685 3.37353 16.7774 4.36553 17.2096 5.56379C17.6418 6.7424 17.8578 8.12727 17.8578 9.71841C17.8578 11.2702 17.6319 12.6453 17.1801 13.8436C16.7283 15.0222 16.1096 16.0142 15.3238 16.8196C14.5381 17.6249 13.605 18.2339 12.5246 18.6464C11.4639 19.0589 10.3049 19.2652 9.04769 19.2652C7.7905 19.2652 6.63153 19.0688 5.57078 18.6759C4.51003 18.2634 3.58678 17.6642 2.80103 16.8785C2.03493 16.0731 1.4358 15.0811 1.00365 13.9025C0.571487 12.7042 0.355407 11.3095 0.355407 9.71841C0.355407 8.16656 0.581309 6.80133 1.03311 5.62272C1.48491 4.42446 2.10369 3.42264 2.88943 2.61725C3.67517 1.81186 4.59842 1.20291 5.65918 0.790396C6.73957 0.37788 7.90837 0.171622 9.16556 0.171622ZM3.30195 9.71841C3.30195 10.9756 3.44927 12.0658 3.74393 12.9891C4.05822 13.9123 4.48056 14.6784 5.01094 15.2874C5.54131 15.8963 6.16009 16.3481 6.86726 16.6428C7.59407 16.9374 8.36017 17.0848 9.16556 17.0848C9.97094 17.0848 10.7174 16.9374 11.4049 16.6428C12.1121 16.3481 12.721 15.8963 13.2318 15.2874C13.7622 14.6784 14.1747 13.9123 14.4693 12.9891C14.764 12.0658 14.9113 10.9756 14.9113 9.71841C14.9113 8.42193 14.7542 7.31207 14.4399 6.38882C14.1452 5.46557 13.7327 4.70929 13.2023 4.11998C12.6719 3.51103 12.0433 3.06905 11.3165 2.79404C10.6094 2.49939 9.85308 2.35206 9.04769 2.35206C8.24231 2.35206 7.48603 2.49939 6.77886 2.79404C6.07169 3.0887 5.46274 3.5405 4.95201 4.14945C4.44127 4.7584 4.03858 5.5245 3.74393 6.44775C3.44927 7.371 3.30195 8.46122 3.30195 9.71841ZM23.3251 0.43681H26.0359V16.7017H33.9621V19H23.3251V0.43681ZM44.0045 0.43681H46.4206L53.8164 19H50.9877L48.9546 13.8436H41.3231L39.3195 19H36.5202L44.0045 0.43681ZM42.0597 11.6926H48.1591L46.9215 8.48086C46.5876 7.63619 46.2831 6.82098 46.0081 6.03523C45.7331 5.24949 45.4581 4.4441 45.1831 3.61907H45.1241C44.8491 4.4441 44.5643 5.23967 44.2696 6.00577C43.975 6.77187 43.6607 7.5969 43.3267 8.48086L42.0597 11.6926ZM57.6297 19V3.08869H59.9532V10.2867L66.6461 3.08869H69.5253L62.9587 10.1351L70.0304 19H67.1007L61.2918 11.7263L59.9532 13.1659V19H57.6297ZM79.5018 2.86139C80.5794 2.86139 81.5728 3.03818 82.482 3.39177C83.3912 3.72851 84.1742 4.24205 84.8308 4.93239C85.5043 5.60588 86.0263 6.45617 86.3967 7.48325C86.7671 8.49349 86.9523 9.68052 86.9523 11.0443C86.9523 12.3745 86.7587 13.5531 86.3715 14.5802C85.9842 15.5904 85.4538 16.4407 84.7803 17.1311C84.1068 17.8214 83.3071 18.3433 82.381 18.6969C81.4718 19.0505 80.4784 19.2273 79.4008 19.2273C78.3232 19.2273 77.3298 19.0589 76.4206 18.7222C75.5114 18.3686 74.72 17.8551 74.0465 17.1816C73.3899 16.4912 72.8763 15.6409 72.5059 14.6307C72.1355 13.6036 71.9503 12.4082 71.9503 11.0443C71.9503 9.7142 72.1439 8.544 72.5311 7.53376C72.9184 6.50668 73.4488 5.64797 74.1223 4.95764C74.7958 4.26731 75.5871 3.74535 76.4963 3.39177C77.4224 3.03818 78.4242 2.86139 79.5018 2.86139ZM74.4759 11.0443C74.4759 12.1219 74.6021 13.0564 74.8547 13.8478C75.1241 14.6391 75.4861 15.2958 75.9407 15.8177C76.3953 16.3397 76.9257 16.727 77.5318 16.9795C78.1548 17.2321 78.8115 17.3584 79.5018 17.3584C80.1921 17.3584 80.832 17.2321 81.4213 16.9795C82.0274 16.727 82.5494 16.3397 82.9871 15.8177C83.4418 15.2958 83.7953 14.6391 84.0479 13.8478C84.3005 13.0564 84.4267 12.1219 84.4267 11.0443C84.4267 9.93308 84.292 8.98177 84.0226 8.19041C83.7701 7.39906 83.4165 6.75082 82.9619 6.2457C82.5073 5.72374 81.9685 5.3449 81.3455 5.10918C80.7394 4.85662 80.0911 4.73034 79.4008 4.73034C78.7105 4.73034 78.0622 4.85662 77.4561 5.10918C76.8499 5.36174 76.328 5.749 75.8902 6.27096C75.4524 6.79291 75.1073 7.44957 74.8547 8.24093C74.6021 9.03228 74.4759 9.96676 74.4759 11.0443ZM92.0708 3.08869L94.7732 12.4587C94.8406 12.6607 94.9079 12.9217 94.9753 13.2416C95.0595 13.5447 95.1437 13.873 95.2278 14.2266C95.312 14.5634 95.3878 14.9085 95.4551 15.2621C95.5225 15.5989 95.573 15.9188 95.6067 16.2218H95.6572C95.7077 15.9188 95.7666 15.5989 95.834 15.2621C95.9182 14.9085 96.0024 14.5634 96.0865 14.2266C96.1707 13.873 96.2465 13.5447 96.3139 13.2416C96.398 12.9386 96.4738 12.6776 96.5412 12.4587L99.3193 3.08869H101.39L104.27 12.4587C104.337 12.6776 104.404 12.9386 104.472 13.2416C104.556 13.5447 104.632 13.8646 104.699 14.2014C104.783 14.5381 104.859 14.8833 104.926 15.2369C105.01 15.5904 105.078 15.9188 105.128 16.2218H105.179C105.229 15.9019 105.288 15.5652 105.356 15.2116C105.44 14.858 105.524 14.5128 105.608 14.1761C105.692 13.8225 105.768 13.5026 105.835 13.2164C105.92 12.9133 105.987 12.6607 106.037 12.4587L108.639 3.08869H110.988L106.315 19H103.966L101.542 10.5392C101.424 10.1183 101.306 9.72261 101.188 9.35219C101.087 8.98177 100.986 8.62819 100.885 8.29144C100.801 7.95469 100.708 7.61794 100.607 7.2812C100.523 6.92761 100.431 6.55719 100.33 6.16993H100.279C100.111 6.92761 99.9255 7.68529 99.7234 8.44298C99.5214 9.20066 99.3277 9.89941 99.1425 10.5392L96.7937 19H94.4702L89.6968 3.08869H92.0708ZM118.045 3.08869H120.116L126.456 19H124.031L122.289 14.5802H115.747L114.03 19H111.63L118.045 3.08869ZM116.379 12.7365H121.607L120.546 9.98359C120.26 9.25959 119.999 8.56084 119.763 7.88734C119.527 7.21385 119.291 6.52352 119.056 5.81635H119.005C118.769 6.52352 118.525 7.20543 118.273 7.86209C118.02 8.51874 117.751 9.22591 117.465 9.98359L116.379 12.7365ZM130.013 3.08869H132.336V17.03H139.13V19H130.013V3.08869ZM149.745 17.3078C150.587 17.3078 151.277 17.2405 151.816 17.1058C152.372 16.9711 152.919 16.7775 153.458 16.5249L153.988 18.3939C153.399 18.6801 152.751 18.8906 152.043 19.0253C151.353 19.16 150.503 19.2273 149.493 19.2273C148.449 19.2273 147.464 19.0505 146.538 18.6969C145.612 18.3433 144.803 17.8214 144.113 17.1311C143.44 16.4407 142.901 15.5904 142.497 14.5802C142.109 13.5531 141.916 12.3745 141.916 11.0443C141.916 9.74787 142.109 8.59451 142.497 7.58427C142.884 6.55719 143.414 5.69849 144.088 5.00815C144.778 4.30099 145.595 3.77061 146.538 3.41702C147.481 3.0466 148.508 2.86139 149.619 2.86139C150.663 2.86139 151.522 2.94558 152.195 3.11395C152.869 3.28232 153.491 3.50963 154.064 3.79586L153.508 5.6143C153.188 5.4796 152.885 5.36174 152.599 5.26071C152.33 5.14285 152.052 5.05025 151.766 4.9829C151.496 4.91555 151.21 4.86504 150.907 4.83136C150.621 4.79769 150.292 4.78085 149.922 4.78085C149.181 4.78085 148.474 4.89871 147.8 5.13443C147.144 5.35332 146.563 5.71532 146.058 6.22044C145.57 6.72556 145.174 7.38222 144.871 8.19041C144.585 8.98177 144.441 9.9415 144.441 11.0696C144.441 12.2145 144.585 13.1827 144.871 13.974C145.157 14.7654 145.536 15.4052 146.007 15.8935C146.496 16.3818 147.06 16.7438 147.699 16.9795C148.339 17.1984 149.021 17.3078 149.745 17.3078ZM168.551 3.08869V4.47778L159.812 17.1311H168.677V19H157.059V17.3584L165.646 4.95764H157.438V3.08869H168.551ZM173.867 3.08869L177.832 10.2109L181.823 3.08869H184.273L178.893 12.3324V19H176.57V12.3324L171.316 3.08869H173.867ZM187.82 19V3.08869H190.143V10.2867L196.836 3.08869H199.715L193.149 10.1351L200.22 19H197.291L191.482 11.7263L190.143 13.1659V19H187.82Z" fill="#282828"/>
</svg>
