<svg width="18" height="18" viewBox="0 0 18 18" fill="none" xmlns="http://www.w3.org/2000/svg">
<path d="M16.0372 13.3141C16.2125 13.49 16.3438 13.7046 16.4207 13.9407C16.4976 14.1768 16.5178 14.4276 16.4796 14.6729C16.4415 14.9182 16.3461 15.1511 16.2013 15.3527C16.0564 15.5543 15.8661 15.719 15.6457 15.8334C14.3865 16.5064 12.9194 16.6784 11.5387 16.3149C7.87423 15.3924 2.60698 10.1251 1.68448 6.46062C1.32098 5.07991 1.49298 3.61282 2.16598 2.35362C2.28035 2.13328 2.44501 1.94296 2.64662 1.79809C2.84823 1.65321 3.08112 1.55785 3.32644 1.51973C3.57175 1.48161 3.8226 1.50179 4.05867 1.57865C4.29474 1.65551 4.50938 1.78688 4.68523 1.96212L6.24898 3.52512C6.47449 3.74837 6.62708 4.03469 6.68666 4.34636C6.74624 4.65804 6.71 4.98045 6.58273 5.27112C6.44346 5.59725 6.24571 5.89516 5.99923 6.15012C4.21123 7.93812 10.062 13.7889 11.8492 12.0001C12.1042 11.7528 12.4024 11.5542 12.729 11.4144C13.0196 11.2869 13.3421 11.2505 13.6538 11.3101C13.9655 11.3697 14.2519 11.5224 14.475 11.7481L16.0372 13.3141Z" fill="#282828"/>
</svg>
