<svg width="18" height="18" viewBox="0 0 18 18" fill="none" xmlns="http://www.w3.org/2000/svg">
<path d="M15.75 3H2.25C2.05109 3 1.86032 3.07902 1.71967 3.21967C1.57902 3.36032 1.5 3.55109 1.5 3.75V14.25C1.5 14.4489 1.57902 14.6397 1.71967 14.7803C1.86032 14.921 2.05109 15 2.25 15H15.75C15.9489 15 16.1397 14.921 16.2803 14.7803C16.421 14.6397 16.5 14.4489 16.5 14.25V3.75C16.5 3.55109 16.421 3.36032 16.2803 3.21967C16.1397 3.07902 15.9489 3 15.75 3ZM6.53025 11.0302L5.03025 12.5303C4.8888 12.6669 4.69935 12.7425 4.5027 12.7408C4.30605 12.739 4.11794 12.6602 3.97889 12.5211C3.83983 12.3821 3.76095 12.1939 3.75924 11.9973C3.75754 11.8007 3.83313 11.6112 3.96975 11.4698L5.46975 9.96975C5.6112 9.83313 5.80065 9.75754 5.9973 9.75924C6.19395 9.76095 6.38206 9.83983 6.52111 9.97889C6.66017 10.1179 6.73905 10.3061 6.74076 10.5027C6.74246 10.6993 6.66687 10.8888 6.53025 11.0302ZM14.0303 12.5303C13.8896 12.6709 13.6989 12.7498 13.5 12.7498C13.3011 12.7498 13.1104 12.6709 12.9697 12.5303L11.4698 11.0302C11.3331 10.8888 11.2575 10.6993 11.2592 10.5027C11.261 10.3061 11.3398 10.1179 11.4789 9.97889C11.6179 9.83983 11.8061 9.76095 12.0027 9.75924C12.1993 9.75754 12.3888 9.83313 12.5303 9.96975L14.0303 11.4698C14.1709 11.6104 14.2498 11.8011 14.2498 12C14.2498 12.1989 14.1709 12.3896 14.0303 12.5303ZM14.625 6.651L9.375 9.651C9.2617 9.71572 9.13348 9.74976 9.003 9.74976C8.87252 9.74976 8.7443 9.71572 8.631 9.651L3.381 6.651C3.29304 6.60346 3.21547 6.53882 3.15286 6.46086C3.09024 6.38291 3.04385 6.29322 3.0164 6.19708C2.98896 6.10094 2.98101 6.00028 2.99303 5.90102C3.00505 5.80176 3.0368 5.7059 3.08641 5.61909C3.13601 5.53228 3.20248 5.45626 3.28189 5.39551C3.3613 5.33476 3.45206 5.2905 3.54883 5.26534C3.64559 5.24017 3.74642 5.23461 3.84536 5.24898C3.94431 5.26335 4.03939 5.29735 4.125 5.349L9 8.13675L13.875 5.349C13.9605 5.29975 14.0548 5.26783 14.1527 5.25505C14.2505 5.24227 14.3499 5.24888 14.4452 5.27451C14.5404 5.30014 14.6297 5.34428 14.7079 5.40442C14.7862 5.46456 14.8518 5.53951 14.901 5.625C14.9502 5.71049 14.9822 5.80484 14.995 5.90267C15.0077 6.0005 15.0011 6.09989 14.9755 6.19516C14.9499 6.29043 14.9057 6.37973 14.8456 6.45794C14.7854 6.53615 14.7105 6.60175 14.625 6.651Z" fill="#282828"/>
</svg>
