<svg width="18" height="15" viewBox="0 0 18 15" fill="none" xmlns="http://www.w3.org/2000/svg">
<path d="M17.1 0H0.9C0.661305 0 0.432387 0.0948213 0.263604 0.263604C0.0948211 0.432387 0 0.661305 0 0.9V13.5C0 13.7387 0.0948211 13.9676 0.263604 14.1364C0.432387 14.3052 0.661305 14.4 0.9 14.4H17.1C17.3387 14.4 17.5676 14.3052 17.7364 14.1364C17.9052 13.9676 18 13.7387 18 13.5V0.9C18 0.661305 17.9052 0.432387 17.7364 0.263604C17.5676 0.0948213 17.3387 0 17.1 0ZM6.0363 9.6363L4.2363 11.4363C4.06656 11.6002 3.83922 11.691 3.60324 11.6889C3.36726 11.6869 3.14153 11.5922 2.97466 11.4253C2.8078 11.2585 2.71314 11.0327 2.71109 10.7968C2.70904 10.5608 2.79976 10.3334 2.9637 10.1637L4.7637 8.3637C4.93344 8.19976 5.16078 8.10904 5.39676 8.11109C5.63274 8.11314 5.85847 8.2078 6.02534 8.37466C6.1922 8.54153 6.28686 8.76726 6.28891 9.00324C6.29096 9.23922 6.20024 9.46656 6.0363 9.6363ZM15.0363 11.4363C14.8675 11.605 14.6386 11.6998 14.4 11.6998C14.1614 11.6998 13.9325 11.605 13.7637 11.4363L11.9637 9.6363C11.7998 9.46656 11.709 9.23922 11.7111 9.00324C11.7131 8.76726 11.8078 8.54153 11.9747 8.37466C12.1415 8.2078 12.3673 8.11314 12.6032 8.11109C12.8392 8.10904 13.0666 8.19976 13.2363 8.3637L15.0363 10.1637C15.205 10.3325 15.2998 10.5614 15.2998 10.8C15.2998 11.0386 15.205 11.2675 15.0363 11.4363ZM15.75 4.3812L9.45 7.9812C9.31404 8.05886 9.16017 8.09971 9.0036 8.09971C8.84702 8.09971 8.69316 8.05886 8.5572 7.9812L2.2572 4.3812C2.15165 4.32415 2.05857 4.24658 1.98343 4.15304C1.90829 4.05949 1.85262 3.95187 1.81968 3.8365C1.78675 3.72112 1.77721 3.60033 1.79164 3.48122C1.80606 3.36211 1.84416 3.24708 1.90369 3.14291C1.96322 3.03873 2.04297 2.94751 2.13827 2.87461C2.23356 2.80171 2.34247 2.7486 2.45859 2.7184C2.57471 2.68821 2.6957 2.68153 2.81444 2.69877C2.93317 2.71602 3.04726 2.75682 3.15 2.8188L9 6.1641L14.85 2.8188C14.9526 2.75971 15.0658 2.7214 15.1832 2.70606C15.3006 2.69072 15.4199 2.69866 15.5342 2.72941C15.6485 2.76017 15.7557 2.81314 15.8495 2.8853C15.9434 2.95747 16.0221 3.04741 16.0812 3.15C16.1403 3.25259 16.1786 3.36581 16.1939 3.48321C16.2093 3.6006 16.2013 3.71987 16.1706 3.83419C16.1398 3.94852 16.0869 4.05567 16.0147 4.14953C15.9425 4.24338 15.8526 4.32211 15.75 4.3812Z" fill="white"/>
</svg>
