<svg width="17" height="17" viewBox="0 0 17 17" fill="none" xmlns="http://www.w3.org/2000/svg">
<path d="M16.4774 13.3879C16.676 13.5872 16.8249 13.8305 16.912 14.098C16.9991 14.3656 17.022 14.6499 16.9787 14.9279C16.9355 15.2059 16.8275 15.4698 16.6633 15.6983C16.4991 15.9268 16.2834 16.1134 16.0337 16.243C14.6066 17.0057 12.944 17.2007 11.3792 16.7887C7.22618 15.7432 1.25677 9.77382 0.211288 5.62081C-0.200677 4.05604 -0.00574699 2.39337 0.756976 0.966313C0.886595 0.716591 1.0732 0.500903 1.30169 0.336716C1.53017 0.172529 1.79411 0.0644572 2.07213 0.0212518C2.35015 -0.0219536 2.63444 0.000921835 2.90197 0.088026C3.16951 0.17513 3.41277 0.324014 3.61206 0.522623L5.38427 2.29398C5.63984 2.54699 5.81278 2.87147 5.8803 3.2247C5.94782 3.57792 5.90675 3.94331 5.76252 4.27274C5.60468 4.64235 5.38056 4.97996 5.10123 5.26892C3.07487 7.29527 9.70558 13.926 11.7311 11.8988C12.0201 11.6184 12.358 11.3934 12.7281 11.2349C13.0575 11.0905 13.4229 11.0493 13.7762 11.1168C14.1295 11.1843 14.454 11.3574 14.7069 11.6132L16.4774 13.3879Z" fill="white"/>
</svg>
